<svg width="34" height="34" viewBox="0 0 34 34" fill="none" xmlns="http://www.w3.org/2000/svg">
<path d="M17 34C26.3888 34 34 26.3888 34 17C34 7.61116 26.3888 0 17 0C7.61116 0 0 7.61116 0 17C0 26.3888 7.61116 34 17 34Z" fill="#F26798"/>
<path fill-rule="evenodd" clip-rule="evenodd" d="M16.4997 6C10.7102 6 6 10.7106 6 16.5001C6 22.2897 10.7102 27 16.4997 27C22.2895 27 27 22.29 27 16.5001C27 10.7106 22.2895 6 16.4997 6ZM23.4089 10.9558C24.6067 12.4421 25.3346 14.3192 25.3681 16.3646C24.9696 16.2826 23.2818 15.9676 21.2649 15.9676C20.6141 15.9676 19.9292 16.0003 19.2424 16.0852C19.1845 15.944 19.1265 15.8034 19.0655 15.6614C18.8875 15.242 18.6955 14.8258 18.4969 14.4159C21.6011 13.1353 23.0984 11.3581 23.4089 10.9558ZM22.3443 9.84674C20.7822 8.47598 18.737 7.64368 16.4997 7.64368C15.8124 7.64368 15.1431 7.72296 14.4999 7.87209C14.8608 8.35956 16.3773 10.4595 17.7628 12.9953C20.756 11.863 22.097 10.1845 22.3443 9.84674ZM12.6894 8.50427C12.9952 8.92602 14.514 11.0483 15.9351 13.5638C12.1213 14.5676 8.7345 14.6331 7.91709 14.6331H7.83026C8.41748 11.9234 10.246 9.67168 12.6894 8.50427ZM7.63246 16.295C7.6301 16.3678 7.62892 16.4409 7.62892 16.514C7.62892 18.7663 8.47341 20.824 9.86274 22.3914C10.2377 21.771 12.6746 17.9752 17.1084 16.5414C17.2058 16.5096 17.3039 16.481 17.4034 16.4524C17.1917 15.9776 16.9642 15.5025 16.7252 15.0345C12.7874 16.2045 8.96615 16.2956 7.86529 16.2956C7.76374 16.2956 7.68544 16.2956 7.63246 16.295ZM16.4997 25.3837C14.4652 25.3837 12.5875 24.6938 11.0893 23.537C11.3427 23.0395 13.1821 19.7235 18.0409 18.0304C18.0439 18.0292 18.0471 18.028 18.0506 18.0271C19.2689 21.2031 19.7849 23.8686 19.9265 24.6947C18.8722 25.1385 17.7142 25.3837 16.4997 25.3837ZM19.8241 17.5918C20.9273 20.6387 21.4053 23.1368 21.5242 23.8202C23.4666 22.4801 24.8501 20.3864 25.2507 17.967C24.9137 17.8638 23.4634 17.4574 21.6093 17.4574C21.0447 17.4574 20.4428 17.4954 19.8241 17.5918Z" fill="#F1F2F2"/>
</svg>
