<svg width="35" height="35" viewBox="0 0 35 35" fill="none" xmlns="http://www.w3.org/2000/svg">
<defs>
<linearGradient id="paint0_linear" x1="18.4792" y1="21.7009" x2="10.3483" y2="4.56271" gradientUnits="userSpaceOnUse">
<stop stop-color="#17B7BD"/>
<stop offset="1" stop-color="#9DEB93"/>
</linearGradient>
</defs>
<path fill-rule="evenodd" clip-rule="evenodd" d="M7.7998 15.3367C7.7998 9.67302 12.3656 5.08008 17.9998 5.08008C23.634 5.08008 28.1998 9.67302 28.1998 15.3367C28.1998 18.1323 27.0813 20.751 25.1386 22.6625L18.4821 29.3595C18.2162 29.6269 17.7834 29.627 17.5175 29.3595L10.8488 22.651C8.91141 20.7351 7.7998 18.1236 7.7998 15.3367ZM17.9998 18.6801C16.122 18.6801 14.5998 17.1578 14.5998 15.2801C14.5998 13.4023 16.122 11.8801 17.9998 11.8801C19.8776 11.8801 21.3998 13.4023 21.3998 15.2801C21.3998 17.1578 19.8776 18.6801 17.9998 18.6801ZM20.0398 15.2801C20.0398 16.4067 19.1265 17.3201 17.9998 17.3201C16.8731 17.3201 15.9598 16.4067 15.9598 15.2801C15.9598 14.1534 16.8731 13.2401 17.9998 13.2401C19.1265 13.2401 20.0398 14.1534 20.0398 15.2801Z" fill="url(#paint0_linear)"/>
</svg>
