<svg width="34" height="34" viewBox="0 0 34 34" fill="none" xmlns="http://www.w3.org/2000/svg">
<defs>
<linearGradient id="paint0_linear" x1="-6.69653" y1="0.414172" x2="-6.69653" y2="47.8077" gradientUnits="userSpaceOnUse">
<stop stop-color="#FFC996"/>
<stop offset="1" stop-color="#E73E79"/>
</linearGradient>
</defs>
<path fill-rule="evenodd" clip-rule="evenodd" d="M20.6264 21.1999H28.4004V8.5999C28.4004 6.28031 26.52 4.3999 24.2004 4.3999H9.80039C7.48079 4.3999 5.60039 6.28031 5.60039 8.5999V21.1999H13.4384C14.4436 21.1999 15.254 22.0232 15.2382 23.0282L15.2291 23.6011L18.8194 23.6035L18.8265 22.9795C18.8377 21.9934 19.6402 21.1999 20.6264 21.1999ZM16.4004 14.5999V9.7999C16.4004 9.46853 16.669 9.1999 17.0004 9.1999C17.3318 9.1999 17.6004 9.46853 17.6004 9.7999V14.5999C17.6004 14.9313 17.3318 15.1999 17.0004 15.1999C16.669 15.1999 16.4004 14.9313 16.4004 14.5999ZM17.0004 17.5999C17.3318 17.5999 17.6004 17.3313 17.6004 16.9999C17.6004 16.6685 17.3318 16.3999 17.0004 16.3999C16.669 16.3999 16.4004 16.6685 16.4004 16.9999C16.4004 17.3313 16.669 17.5999 17.0004 17.5999ZM20.6264 22.3999C20.2977 22.3999 20.0301 22.6644 20.0264 22.9931L20.0059 24.8043L14.0101 24.8003L14.0383 23.0093C14.0436 22.6743 13.7735 22.3999 13.4384 22.3999H5.00059C4.62197 22.3999 4.33799 22.7463 4.41225 23.1176L5.03345 26.2236C5.42609 28.1868 7.14983 29.5999 9.15189 29.5999H24.8493C26.8514 29.5999 28.5751 28.1868 28.9677 26.2236L29.5889 23.1176C29.6632 22.7463 29.3792 22.3999 29.0006 22.3999H20.6264Z" fill="url(#paint0_linear)"/>
</svg>
