<svg width="48" height="34" viewBox="0 0 48 34" fill="none" xmlns="http://www.w3.org/2000/svg">
<rect width="48" height="34" fill="white"/>
<path fill-rule="evenodd" clip-rule="evenodd" d="M33.5 16C33.7761 16 34 15.7761 34 15.5C34 10.8056 30.1944 7 25.5 7C25.2239 7 25 7.22386 25 7.5V15.5C25 15.7761 25.2239 16 25.5 16H33.5ZM31.5 18H23V9.5C23 9.22386 22.7761 9 22.5 9C17.2533 9 13 13.2533 13 18.5C13 23.7467 17.2533 28 22.5 28C27.7467 28 32 23.7467 32 18.5C32 18.2239 31.7761 18 31.5 18Z" fill="#43404D"/>
</svg>
