<svg width="75" height="75" viewBox="0 0 65 65" fill="none" xmlns="http://www.w3.org/2000/svg">
<g id="ic_correct">
<path id="Path" fill-rule="evenodd" clip-rule="evenodd" d="M42 25C42 15.6112 34.3888 8 25 8C15.6112 8 8 15.6112 8 25C8 34.3888 15.6112 42 25 42C34.3888 42 42 34.3888 42 25ZM31.62 18.2154C31.1866 17.873 30.5578 17.9467 30.2154 18.3801L23.0038 27.5066L19.7002 24.2663C19.306 23.8796 18.6728 23.8857 18.2861 24.28C17.8994 24.6743 17.9055 25.3074 18.2998 25.6941L22.3981 29.7139C22.8225 30.1303 23.5143 30.0865 23.8829 29.62L31.7846 19.62C32.127 19.1867 32.0533 18.5578 31.62 18.2154Z" fill="#17B7BD"/>
</g>
</svg>
