<svg width="36" height="36" viewBox="0 0 36 36" fill="none" xmlns="http://www.w3.org/2000/svg">
<path fill-rule="evenodd" clip-rule="evenodd" d="M30.2398 18C30.2398 11.24 24.7597 5.76001 17.9998 5.76001C11.2398 5.76001 5.75977 11.24 5.75977 18C5.75977 24.76 11.2398 30.24 17.9998 30.24C24.7597 30.24 30.2398 24.76 30.2398 18ZM14.6112 15.6297L16.9841 17.9974L14.6106 20.3709C14.3295 20.6521 14.3295 21.1079 14.6106 21.3891C14.8918 21.6703 15.3477 21.6703 15.6289 21.3891L18.0034 19.0146L20.3837 21.3897C20.6652 21.6706 21.121 21.6701 21.4019 21.3886C21.6828 21.1071 21.6823 20.6512 21.4008 20.3703L19.0217 17.9963L21.3889 15.6291C21.6701 15.3479 21.6701 14.8921 21.3889 14.6109C21.1077 14.3297 20.6518 14.3297 20.3706 14.6109L18.0023 16.9792L15.6283 14.6103C15.3468 14.3295 14.891 14.33 14.6101 14.6114C14.3292 14.8929 14.3297 15.3488 14.6112 15.6297Z" fill="#C4C2CB"/>
</svg>
