<svg width="34" height="34" viewBox="0 0 34 34" fill="none" xmlns="http://www.w3.org/2000/svg">
<defs>
<linearGradient id="paint0_linear" x1="2.8304" y1="4.41999" x2="10.2641" y2="35.4326" gradientUnits="userSpaceOnUse">
<stop stop-color="#A5DDFF"/>
<stop offset="1" stop-color="#23429D"/>
</linearGradient>
</defs>
<path fill-rule="evenodd" clip-rule="evenodd" d="M16.9999 4.3999C13.1042 4.3999 9.94134 7.53741 9.90031 11.4234C13.021 11.4468 15.7053 10.072 19.0543 6.98423C19.4105 6.65584 19.9879 6.7834 20.17 7.23068C21.0867 9.48342 22.6453 10.9507 24.0875 11.0773C23.8689 7.3528 20.7792 4.3999 16.9999 4.3999ZM19.2893 8.62994C16.0175 11.4907 13.1982 12.8216 9.8999 12.7996V14.0999C9.8999 16.781 11.3999 19.1859 13.7116 20.3942L13.1425 21.9547C13.1451 24.0235 14.871 25.6999 16.9996 25.6999C18.7323 25.6999 20.1982 24.5891 20.6849 23.06C20.3583 23.3932 19.9031 23.5999 19.3996 23.5999C18.4055 23.5999 17.5996 22.794 17.5996 21.7999C17.5996 20.8058 18.4055 19.9999 19.3996 19.9999C19.7808 19.9999 20.1344 20.1184 20.4254 20.3206C22.659 19.09 24.0999 16.7276 24.0999 14.0999V12.4567C24.0876 12.4566 24.0753 12.4562 24.0629 12.4554C22.2215 12.3422 20.4424 10.8689 19.2893 8.62994ZM11.6604 22.7401C12.0523 25.2647 14.2935 27.1999 16.9996 27.1999C19.7063 27.1999 21.9478 25.2639 22.3391 22.7385L25.2163 23.3187C26.3592 23.5416 27.2699 24.4058 27.5523 25.5356L28.382 28.8544C28.4767 29.2331 28.1902 29.5999 27.7999 29.5999H6.1999C5.80956 29.5999 5.52315 29.2331 5.61782 28.8544L6.44645 25.5398C6.72957 24.4074 7.64388 23.542 8.78441 23.3226L11.6604 22.7401ZM8.59961 16.3999H9.02418C8.81199 15.6636 8.6999 14.8907 8.6999 14.0999V11.4999C8.6999 11.127 8.7245 10.7598 8.77215 10.3999H8.59961C7.6055 10.3999 6.79961 11.2058 6.79961 12.1999V14.5999C6.79961 15.594 7.6055 16.3999 8.59961 16.3999ZM9.47303 17.5999H8.89961L8.32519 22.1953C8.39813 22.1771 8.47182 22.1608 8.54618 22.1465L12.0544 21.4359L12.2475 20.9064C11.0377 20.0617 10.0852 18.9164 9.47303 17.5999ZM25.6736 22.1918L25.0996 17.5999H24.5268C23.9147 18.9164 22.9621 20.0617 21.7523 20.9064L21.9451 21.4349L25.4461 22.1409C25.5227 22.1558 25.5985 22.1728 25.6736 22.1918ZM25.3996 10.3999H25.2277C25.2753 10.7598 25.2999 11.127 25.2999 11.4999V14.0999C25.2999 14.8907 25.1878 15.6636 24.9756 16.3999H25.3996C26.3937 16.3999 27.1996 15.594 27.1996 14.5999V12.1999C27.1996 11.2058 26.3937 10.3999 25.3996 10.3999Z" fill="url(#paint0_linear)"/>
<path d="M19.3998 22.4002C19.7312 22.4002 19.9998 22.1316 19.9998 21.8002C19.9998 21.4688 19.7312 21.2002 19.3998 21.2002C19.0684 21.2002 18.7998 21.4688 18.7998 21.8002C18.7998 22.1316 19.0684 22.4002 19.3998 22.4002Z" fill="#67B3F2"/>
</svg>
