<svg width="25" height="25" viewBox="0 0 65 65" fill="none" xmlns="http://www.w3.org/2000/svg">
<defs>
<linearGradient id="paint0_linear" x1="25" y1="59" x2="59" y2="25" gradientUnits="userSpaceOnUse">
<stop stop-color="#FFBBBA"/>
<stop offset="1" stop-color="#E73E79"/>
</linearGradient>
</defs>
<g id="ic_false">
<path id="Path" fill-rule="evenodd" clip-rule="evenodd" d="M42 25C42 15.6112 34.3888 8 25 8C15.6112 8 8 15.6112 8 25C8 34.3888 15.6112 42 25 42C34.3888 42 42 34.3888 42 25ZM20.2937 21.7079L23.5893 24.9964L20.2929 28.2929C19.9024 28.6834 19.9024 29.3166 20.2929 29.7071C20.6834 30.0976 21.3166 30.0976 21.7071 29.7071L25.0051 26.4091L28.311 29.7079C28.7019 30.098 29.3351 30.0973 29.7252 29.7063C30.1153 29.3154 30.1146 28.6822 29.7237 28.2921L26.4193 24.9949L29.7071 21.7071C30.0976 21.3166 30.0976 20.6834 29.7071 20.2929C29.3166 19.9024 28.6834 19.9024 28.2929 20.2929L25.0036 23.5822L21.7063 20.2921C21.3154 19.902 20.6822 19.9027 20.2921 20.2937C19.902 20.6846 19.9027 21.3178 20.2937 21.7079Z" fill="url(#paint0_linear)"/>
</g>
</svg>
