<svg width="34" height="34" viewBox="0 0 34 34" fill="none" xmlns="http://www.w3.org/2000/svg">
<defs>
<linearGradient id="paint0_linear" x1="63.7148" y1="24.4756" x2="17.7871" y2="-20.0439" gradientUnits="userSpaceOnUse">
<stop stop-color="#9D61F7"/>
<stop offset="1" stop-color="#80F0FF"/>
</linearGradient>
</defs>
<path fill-rule="evenodd" clip-rule="evenodd" d="M17 34C26.3888 34 34 26.3888 34 17C34 7.61116 26.3888 0 17 0C7.61116 0 0 7.61116 0 17C0 26.3888 7.61116 34 17 34Z" fill="url(#paint0_linear)"/>
<path fill-rule="evenodd" clip-rule="evenodd" d="M12.2004 25.4005H12.8135L13.1581 24.7342C13.3233 24.4149 13.4004 24.1134 13.4004 23.8171C13.4004 23.5143 13.3198 23.2011 13.1468 22.8653L12.3922 21.4005H23.0004V9.00046C23.0004 8.72094 22.721 8.52762 22.4594 8.62612L19.4196 9.77086L16.3398 8.62555C16.2485 8.59158 16.1479 8.59213 16.0569 8.62708L13.0563 9.78024L9.93936 8.62538C9.67811 8.52858 9.40039 8.72185 9.40039 9.00046V22.6005C9.40039 24.1469 10.654 25.4005 12.2004 25.4005ZM13.0004 13.4001H16.2004C16.4213 13.4001 16.6004 13.5792 16.6004 13.8001C16.6004 14.021 16.4213 14.2001 16.2004 14.2001H13.0004C12.7795 14.2001 12.6004 14.021 12.6004 13.8001C12.6004 13.5792 12.7795 13.4001 13.0004 13.4001ZM13.0004 16.6001C12.7795 16.6001 12.6004 16.7792 12.6004 17.0001C12.6004 17.221 12.7795 17.4001 13.0004 17.4001H19.4004C19.6213 17.4001 19.8004 17.221 19.8004 17.0001C19.8004 16.7792 19.6213 16.6001 19.4004 16.6001H13.0004ZM25.8169 24.1997C25.8169 23.108 24.9422 22.2206 23.8554 22.2001H13.4004C14.0568 22.8569 14.4073 23.5238 14.4086 24.214C14.4099 24.9039 14.0621 25.5611 13.4083 26.1997H23.8169C24.9214 26.1997 25.8169 25.3043 25.8169 24.1997Z" fill="white"/>
</svg>
