<svg width="34" height="34" viewBox="0 0 34 34" fill="none" xmlns="http://www.w3.org/2000/svg">
<defs>
<linearGradient id="paint0_linear" x1="-4.08004" y1="16.8502" x2="19.282" y2="37.8063" gradientUnits="userSpaceOnUse">
<stop stop-color="#FFBBBA"/>
<stop offset="1" stop-color="#E73E79"/>
</linearGradient>
</defs>
<path fill-rule="evenodd" clip-rule="evenodd" d="M17 5.1001C16.4366 5.1001 15.98 5.55677 15.98 6.1201V11.5601C15.98 12.1234 16.4366 12.5801 17 12.5801C17.5633 12.5801 18.02 12.1234 18.02 11.5601V6.1201C18.02 5.55677 17.5633 5.1001 17 5.1001ZM14.7901 8.49742C14.6008 7.96687 14.0172 7.69028 13.4866 7.87963C12.0057 8.40818 10.6635 9.26453 9.5424 10.4002C5.43248 14.5637 5.43248 21.3087 9.5424 25.4722C13.6596 29.643 20.3404 29.643 24.4575 25.4722C28.5674 21.3087 28.5674 14.5637 24.4575 10.4002C23.337 9.26508 21.9955 8.409 20.5154 7.88039C19.9849 7.69092 19.4013 7.96739 19.2118 8.4979C19.0223 9.02841 19.2988 9.61207 19.8293 9.80154C21.0208 10.2271 22.1005 10.9164 23.0057 11.8334C26.3314 15.2024 26.3314 20.67 23.0057 24.039C19.6873 27.4007 14.3126 27.4007 10.9942 24.039C7.66855 20.67 7.66855 15.2024 10.9942 11.8334C11.8998 10.9159 12.9802 10.2264 14.1723 9.80093C14.7029 9.61158 14.9795 9.02797 14.7901 8.49742Z" fill="url(#paint0_linear)"/>
</svg>
