<svg width="36" height="36" viewBox="0 0 36 36" fill="none" xmlns="http://www.w3.org/2000/svg">
<defs>
<linearGradient id="paint0_linear" x1="18.0004" y1="-17.2801" x2="53.2803" y2="17.9999" gradientUnits="userSpaceOnUse">
<stop stop-color="#FFBBBA"/>
<stop offset="1" stop-color="#E73E79"/>
</linearGradient>
</defs>
<path fill-rule="evenodd" clip-rule="evenodd" d="M23.8804 13.2994L11.7891 25.3187C10.9948 26.1083 9.81042 24.9168 10.6047 24.1272L22.6805 12.1233L14.6417 12.1366C14.1778 12.1374 13.8011 11.762 13.8004 11.298C13.7996 10.8341 14.175 10.4574 14.639 10.4566L24.6894 10.4399C24.6943 10.4399 24.6993 10.4399 24.7043 10.4399L24.719 10.4399C25.1834 10.4391 25.5604 10.8154 25.5604 11.2799V21.3766C25.5604 21.8406 25.1843 22.2166 24.7204 22.2166C24.2564 22.2166 23.8804 21.8406 23.8804 21.3766V13.2994ZM18.0004 0.359894C8.25805 0.359894 0.360352 8.25759 0.360352 17.9999C0.360352 27.7422 8.25805 35.6399 18.0004 35.6399C27.7427 35.6399 35.6404 27.7422 35.6404 17.9999C35.6404 8.25759 27.7427 0.359894 18.0004 0.359894Z" fill="url(#paint0_linear)"/>
</svg>
