<svg width="36" height="36" viewBox="0 0 36 36" fill="none" xmlns="http://www.w3.org/2000/svg">
<linearGradient id="paint0_linear" x1="18.8294" y1="24.3136" x2="8.48356" y2="-1.85457" gradientUnits="userSpaceOnUse">
<stop stop-color="#17B7BD"/>
<stop offset="1" stop-color="#9DEB93"/>
</linearGradient>
<path fill-rule="evenodd" clip-rule="evenodd" d="M23.8804 22.7006L11.7891 10.6813C10.9948 9.89171 9.81042 11.0832 10.6047 11.8728L22.6805 23.8767L14.6417 23.8634C14.1778 23.8626 13.8011 24.238 13.8004 24.702C13.7996 25.1659 14.175 25.5426 14.639 25.5434L24.6894 25.5601C24.6943 25.5601 24.6993 25.5601 24.7043 25.5601L24.719 25.5601C25.1834 25.5609 25.5604 25.1846 25.5604 24.7201V14.6234C25.5604 14.1594 25.1843 13.7834 24.7204 13.7834C24.2564 13.7834 23.8804 14.1594 23.8804 14.6234V22.7006ZM18.0004 35.6401C8.25805 35.6401 0.360352 27.7424 0.360352 18.0001C0.360352 8.2578 8.25805 0.360107 18.0004 0.360107C27.7427 0.360107 35.6404 8.2578 35.6404 18.0001C35.6404 27.7424 27.7427 35.6401 18.0004 35.6401Z" fill="url(#paint0_linear)"/>
</svg>
