<svg width="34" height="34" viewBox="0 0 34 34" fill="none" xmlns="http://www.w3.org/2000/svg">
<defs>
<linearGradient id="paint0_linear" x1="-3.40134" y1="15.9801" x2="20.1191" y2="36.1427" gradientUnits="userSpaceOnUse">
<stop stop-color="#FFBBBA"/>
<stop offset="1" stop-color="#E73E79"/>
</linearGradient>
</defs>
<path fill-rule="evenodd" clip-rule="evenodd" d="M13.6698 5.98185C14.2739 4.85535 15.5381 4.08008 16.9998 4.08008C18.4611 4.08008 19.7249 4.85488 20.3293 5.98082C19.2919 5.63104 18.1708 5.44008 17.0011 5.44008C15.8302 5.44008 14.708 5.63142 13.6698 5.98185ZM20.3998 25.8401C19.8275 27.0409 18.5206 27.8801 16.9998 27.8801C15.479 27.8801 14.1721 27.0409 13.5998 25.8401H20.3998ZM9.52095 19.5142V14.2801C9.52095 10.149 12.8699 6.80008 17.0009 6.80008C21.132 6.80008 24.4809 10.149 24.4809 14.2801V19.5142L27.0867 23.4229C27.388 23.8748 27.0641 24.4801 26.5209 24.4801H7.48095C6.93784 24.4801 6.61389 23.8748 6.91515 23.4229L9.52095 19.5142Z" fill="url(#paint0_linear)"/>
</svg>
