<svg width="48" height="34" viewBox="0 0 48 34" fill="none" xmlns="http://www.w3.org/2000/svg">
<rect width="48" height="34" fill="white"/>
<path fill-rule="evenodd" clip-rule="evenodd" d="M28.5547 21.5797L30.7599 22.3106C32.0973 22.7538 33 23.9991 33 25.4026V26.5134C33 27.2677 32.436 27.9029 31.624 28H17.376L17.3143 27.9962C16.564 27.9029 16 27.2677 16 26.5134V25.4026C16 23.9991 16.9027 22.7538 18.2401 22.3106L20.4453 21.5797C21.3102 21.2931 21.9123 20.5249 21.9912 19.6362L21.4382 19.0864C21.1984 18.8479 21.0095 18.5633 20.8828 18.2498L20.3334 16.8895C19.8407 15.6694 19.6654 14.3443 19.824 13.0381L20.0166 11.4828C20.0166 9.55866 21.5842 8 23.5166 8H25.4834C27.4158 8 28.9834 9.55866 28.9799 11.4237L29.1838 13.1363C29.337 14.4231 29.1585 15.7277 28.6651 16.926L28.1158 18.2603C27.9892 18.5678 27.8025 18.847 27.5667 19.0814L27.0088 19.6362C27.0877 20.5249 27.6898 21.2931 28.5547 21.5797Z" fill="#43404D"/>
</svg>
