<svg width="48" height="34" viewBox="0 0 48 34" fill="none" xmlns="http://www.w3.org/2000/svg">
<rect width="48" height="34" fill="white"/>
<path fill-rule="evenodd" clip-rule="evenodd" d="M16 7H33C34.1046 7 35 7.89543 35 9V23C35 24.1046 34.1046 25 33 25H16C14.8954 25 14 24.1046 14 23V9C14 7.89543 14.8954 7 16 7ZM17 12V20C17 21.1046 17.8954 22 19 22H30C31.1046 22 32 21.1046 32 20V12C32 10.8954 31.1046 10 30 10H19C17.8954 10 17 10.8954 17 12ZM19 21H30C30.5523 21 31 20.5523 31 20V19H29.5C29.2239 19 29 18.7761 29 18.5C29 18.2239 29.2239 18 29.5 18H31V14H29.5C29.2239 14 29 13.7761 29 13.5C29 13.2239 29.2239 13 29.5 13H31V12C31 11.4477 30.5523 11 30 11H19C18.4477 11 18 11.4477 18 12V20C18 20.5523 18.4477 21 19 21ZM23 19C24.6569 19 26 17.6569 26 16C26 14.3431 24.6569 13 23 13C21.3431 13 20 14.3431 20 16C20 17.6569 21.3431 19 23 19ZM21 16C21 17.1046 21.8954 18 23 18C24.1046 18 25 17.1046 25 16C25 14.8954 24.1046 14 23 14C21.8954 14 21 14.8954 21 16ZM16 26H21V26.5C21 27.3284 20.3284 28 19.5 28H17.5C16.6716 28 16 27.3284 16 26.5V26ZM33 26H28V26.5C28 27.3284 28.6716 28 29.5 28H31.5C32.3284 28 33 27.3284 33 26.5V26Z" fill="#43404D"/>
</svg>
