<svg width="34" height="34" viewBox="0 0 34 34" fill="none" xmlns="http://www.w3.org/2000/svg">
<defs>
<linearGradient id="paint0_linear" x1="-4.12941" y1="0.0270968" x2="5.03552" y2="42.2859" gradientUnits="userSpaceOnUse">
<stop stop-color="#A5DDFF"/>
<stop offset="1" stop-color="#23429D"/>
</linearGradient>
</defs>
<path fill-rule="evenodd" clip-rule="evenodd" d="M17 34C26.3888 34 34 26.3888 34 17C34 7.61116 26.3888 0 17 0C7.61116 0 0 7.61116 0 17C0 26.3888 7.61116 34 17 34Z" fill="url(#paint0_linear)"/>
<path fill-rule="evenodd" clip-rule="evenodd" d="M21.421 8.63989C22.636 8.63989 23.621 9.62487 23.621 10.8399C23.621 12.0549 22.636 13.0399 21.421 13.0399C20.206 13.0399 19.221 12.0549 19.221 10.8399C19.221 9.62487 20.206 8.63989 21.421 8.63989ZM21.421 20.0799C22.636 20.0799 23.621 21.0649 23.621 22.2799C23.621 23.4949 22.636 24.4799 21.421 24.4799C20.206 24.4799 19.221 23.4949 19.221 22.2799C19.221 21.0649 20.206 20.0799 21.421 20.0799ZM13.941 16.9999C13.941 15.7849 12.956 14.7999 11.741 14.7999C10.526 14.7999 9.54102 15.7849 9.54102 16.9999C9.54102 18.2149 10.526 19.1999 11.741 19.1999C12.956 19.1999 13.941 18.2149 13.941 16.9999Z" fill="white"/>
<path fill-rule="evenodd" clip-rule="evenodd" d="M18.8924 12.5989C18.7255 12.3593 18.5917 12.0949 18.4978 11.8123L13.3027 14.3447C13.5829 14.5098 13.8346 14.7179 14.0488 14.96L18.8924 12.5989ZM18.3452 22.1219C18.361 21.8091 18.4235 21.5086 18.5258 21.2273L14.0932 18.9888C13.8877 19.2315 13.6453 19.4421 13.3747 19.6117L18.3452 22.1219Z" fill="white"/>
</svg>
