<svg width="24" height="24" viewBox="0 0 24 24" fill="none" xmlns="http://www.w3.org/2000/svg">
<path fill-rule="evenodd" clip-rule="evenodd" d="M24 12C24 5.37258 18.6274 0 12 0C5.37258 0 0 5.37258 0 12C0 18.6274 5.37258 24 12 24C18.6274 24 24 18.6274 24 12Z" fill="none"/>
<path d="M15.3968 11.802L7.67768 4.84705C7.42446 4.61891 7.40414 4.22868 7.63229 3.97546C7.86044 3.72224 8.25066 3.70192 8.50388 3.93007L16.7325 11.344C17.0047 11.5893 17.0045 12.0164 16.7319 12.2614L8.50338 19.6589C8.24991 19.8868 7.8597 19.8661 7.63183 19.6126C7.40397 19.3591 7.42472 18.9689 7.67819 18.741L15.3968 11.802Z" fill="#C4C2CB"/>
</svg>
