<svg width="34" height="34" viewBox="0 0 34 34" fill="none" xmlns="http://www.w3.org/2000/svg">
<defs>
<linearGradient id="paint0_linear" x1="51.6243" y1="22.0131" x2="20.8839" y2="-10.9214" gradientUnits="userSpaceOnUse">
<stop stop-color="#9D61F7"/>
<stop offset="1" stop-color="#80F0FF"/>
</linearGradient>
</defs>
<path fill-rule="evenodd" clip-rule="evenodd" d="M8.16475 5.6001H10.8069C11.3065 5.6001 11.7836 5.80768 12.124 6.1732L15.8835 10.2091C15.997 10.3309 16.156 10.4001 16.3225 10.4001H29.0004C29.3318 10.4001 29.6004 10.6687 29.6004 11.0001V24.2001C29.6004 26.5197 27.72 28.4001 25.4004 28.4001H8.60039C6.28079 28.4001 4.40039 26.5197 4.40039 24.2001V9.36445C4.40039 7.28546 6.08575 5.6001 8.16475 5.6001ZM13.8247 18.9759C13.5903 18.7415 13.2104 18.7415 12.9761 18.9759C12.7418 19.2102 12.7418 19.5901 12.9761 19.8244L15.3761 22.2244C15.629 22.4773 16.0455 22.4542 16.2689 22.1749L21.0689 16.1749C21.2759 15.9162 21.234 15.5386 20.9752 15.3316C20.7164 15.1246 20.3389 15.1665 20.1319 15.4253L15.7506 20.9018L13.8247 18.9759ZM26.0004 6.8001H14.348L16.5836 9.2001H29.0004C29.142 9.2001 29.2797 9.21644 29.4119 9.24735C28.9313 7.82449 27.5855 6.8001 26.0004 6.8001Z" fill="url(#paint0_linear)"/>
</svg>
