<svg width="48" height="34" viewBox="0 0 48 34" fill="none" xmlns="http://www.w3.org/2000/svg">
<rect width="48" height="34" fill="white"/>
<path fill-rule="evenodd" clip-rule="evenodd" d="M15.5 12H30V9.5C30 8.67157 29.3284 8 28.5 8C28.4383 8 28.3767 8.00381 28.3154 8.0114L15.1696 9.64132C13.9276 9.80692 13 10.8664 13 12.1194V13.0505C13.6353 12.4022 14.5207 12 15.5 12ZM31.5 13H15.5C14.8181 13 14.1821 13.2729 13.7142 13.7504L13 14.4793V25.5C13 26.8807 14.1193 28 15.5 28H31.5C32.8807 28 34 26.8807 34 25.5V24H28.5C26.567 24 25 22.433 25 20.5C25 18.567 26.567 17 28.5 17H34V15.5C34 14.1193 32.8807 13 31.5 13ZM28.5 18C27.1193 18 26 19.1193 26 20.5C26 21.8807 27.1193 23 28.5 23H34V18H28.5Z" fill="#C4C2CB"/>
</svg>
