<svg width="36" height="36" viewBox="0 0 36 36" fill="none" xmlns="http://www.w3.org/2000/svg">
<path d="M10.9615 15.44V20.3662L8.50895 24.045C8.22541 24.4703 8.5303 25.04 9.04147 25.04H26.9615C27.4726 25.04 27.7775 24.4703 27.494 24.045L25.0415 20.3662V15.44C25.0415 11.5519 21.8896 8.40002 18.0015 8.40002C14.1134 8.40002 10.9615 11.5519 10.9615 15.44Z" fill="white"/>
<path fill-rule="evenodd" clip-rule="evenodd" d="M17.9998 5.83997C16.6241 5.83997 15.4343 6.56964 14.8657 7.62987C15.8428 7.30005 16.899 7.11997 18.001 7.11997C19.1019 7.11997 20.1571 7.2997 21.1334 7.6289C20.5646 6.56919 19.3751 5.83997 17.9998 5.83997ZM17.9998 28.24C19.4311 28.24 20.6612 27.4501 21.1998 26.32H14.7998C15.3384 27.4501 16.5685 28.24 17.9998 28.24Z" fill="white"/>
</svg>
