<svg width="50" height="20" viewBox="0 0 50 20" fill="none" xmlns="http://www.w3.org/2000/svg">
<path d="M20.1527 3.61816L17.7217 17.2048H21.6097L24.0427 3.61816H20.1527Z" fill="white"/>
<path d="M14.4623 3.63347L10.6543 12.8992L10.2483 11.5001C9.4973 9.81442 7.3653 7.39347 4.8623 5.86776L8.3443 17.1982L12.4583 17.1916L18.5813 3.63062L14.4623 3.63347Z" fill="white"/>
<path d="M8.772 4.60576C8.546 3.77814 7.891 3.53148 7.078 3.50195H1.05L1 3.77243C5.691 4.85624 8.795 7.46767 10.083 10.6077L8.772 4.60576Z" fill="white"/>
<path d="M31.923 6.22286C33.195 6.20381 34.117 6.46858 34.833 6.74286L35.184 6.9L35.71 3.95524C34.94 3.68 33.733 3.38477 32.227 3.38477C28.385 3.38477 25.677 5.22762 25.656 7.86858C25.631 9.82 27.585 10.9095 29.061 11.56C30.576 12.2267 31.084 12.6505 31.077 13.2457C31.065 14.1552 29.869 14.5724 28.752 14.5724C27.195 14.5724 26.368 14.3676 25.091 13.861L24.59 13.6438L24.043 16.6848C24.953 17.0648 26.632 17.3914 28.375 17.4086C32.462 17.4086 35.118 15.5876 35.146 12.7657C35.163 11.2219 34.126 10.0438 31.879 9.07715C30.519 8.44667 29.687 8.02762 29.695 7.39143C29.695 6.82667 30.401 6.22286 31.923 6.22286Z" fill="white"/>
<path fill-rule="evenodd" clip-rule="evenodd" d="M42.684 3.6333H45.688L48.834 17.2123H45.227C45.227 17.2123 44.869 15.6514 44.753 15.1771C44.454 15.1771 43.2021 15.1755 42.0233 15.174C40.9749 15.1727 39.9844 15.1714 39.774 15.1714C39.623 15.5381 38.957 17.2123 38.957 17.2123H34.874L40.647 4.76092C41.057 3.87521 41.751 3.6333 42.684 3.6333ZM42.442 8.5933C42.442 8.5933 41.213 11.6104 40.893 12.3904H44.123L43.222 8.46759L42.96 7.29616C42.8617 7.54632 42.7306 7.87101 42.6248 8.1331C42.5143 8.40682 42.4313 8.61228 42.442 8.5933Z" fill="white"/>
</svg>
