<svg width="36" height="34" viewBox="0 0 36 34" fill="none" xmlns="http://www.w3.org/2000/svg">
<path d="M14.5101 12.7136L12.7598 22.9036H15.5591L17.3109 12.7136H14.5101Z" fill="#7D5DC0"/>
<path d="M10.412 12.725L7.67024 19.6743L7.37792 18.625C6.8372 17.3608 5.30216 15.545 3.5 14.4008L6.00704 22.8986L8.96912 22.8936L13.3777 12.7229L10.412 12.725Z" fill="#7D5DC0"/>
<path d="M6.31557 13.4543C6.15285 12.8336 5.68125 12.6486 5.09589 12.6265H0.755727L0.719727 12.8293C4.09725 13.6422 6.33213 15.6008 7.25949 17.9558L6.31557 13.4543Z" fill="#7D5DC0"/>
<path d="M22.9841 14.6671C23.9 14.6529 24.5638 14.8514 25.0793 15.0571L25.3321 15.175L25.7108 12.9664C25.1564 12.76 24.2873 12.5386 23.203 12.5386C20.4368 12.5386 18.487 13.9207 18.4719 15.9014C18.4539 17.365 19.8608 18.1821 20.9235 18.67C22.0143 19.17 22.3801 19.4879 22.375 19.9343C22.3664 20.6164 21.5053 20.9293 20.701 20.9293C19.58 20.9293 18.9845 20.7757 18.0651 20.3957L17.7044 20.2329L17.3105 22.5136C17.9657 22.7986 19.1746 23.0436 20.4296 23.0564C23.3722 23.0564 25.2845 21.6907 25.3047 19.5743C25.3169 18.4164 24.5703 17.5329 22.9525 16.8079C21.9733 16.335 21.3742 16.0207 21.38 15.5436C21.38 15.12 21.8883 14.6671 22.9841 14.6671Z" fill="#7D5DC0"/>
<path fill-rule="evenodd" clip-rule="evenodd" d="M30.7326 12.7249H32.8955L35.1606 22.9091H32.5635C32.5635 22.9091 32.3058 21.7384 32.2223 21.3827C32.007 21.3827 31.1056 21.3815 30.2569 21.3804C29.502 21.3794 28.7889 21.3784 28.6374 21.3784C28.5287 21.6534 28.0491 22.9091 28.0491 22.9091H25.1094L29.2659 13.5706C29.5611 12.9063 30.0608 12.7249 30.7326 12.7249ZM30.5583 16.4449C30.5583 16.4449 29.6735 18.7077 29.4431 19.2927H31.7687L31.1199 16.3506L30.9313 15.472C30.8605 15.6596 30.7661 15.9031 30.6899 16.0997C30.6103 16.305 30.5506 16.4591 30.5583 16.4449Z" fill="#7D5DC0"/>
</svg>
